<svg width="348" height="111" viewBox="0 0 348 111" fill="none" xmlns="http://www.w3.org/2000/svg">
<path d="M122.017 50.7104H138.161C142.849 50.7682 146.263 49.8134 148.404 47.846C150.603 45.8785 151.702 43.043 151.702 39.3396C151.702 35.6361 150.603 32.8296 148.404 30.92C146.263 28.9525 142.849 27.9688 138.161 27.9688H122.017V50.7104ZM113.771 21.0248H140.939C147.189 21.0248 151.905 22.645 155.087 25.8856C158.328 29.0682 159.948 33.5529 159.948 39.3396C159.948 45.1262 158.328 49.6399 155.087 52.8804C151.905 56.1209 147.189 57.7123 140.939 57.6544H122.017V83H113.771V21.0248Z" fill="#030300"/>
<path d="M172.485 60.6056C172.485 63.3253 172.832 65.7557 173.527 67.8968C174.279 69.98 175.292 71.7449 176.565 73.1916C177.838 74.5804 179.314 75.6509 180.992 76.4032C182.728 77.1555 184.55 77.5316 186.46 77.5316C188.37 77.5316 190.164 77.1555 191.842 76.4032C193.578 75.6509 195.082 74.5804 196.355 73.1916C197.628 71.7449 198.612 69.98 199.306 67.8968C200.059 65.7557 200.435 63.3253 200.435 60.6056C200.435 57.8858 200.059 55.4844 199.306 53.4012C198.612 51.2601 197.628 49.4662 196.355 48.0196C195.082 46.5729 193.578 45.4734 191.842 44.7212C190.164 43.9689 188.37 43.5928 186.46 43.5928C184.55 43.5928 182.728 43.9689 180.992 44.7212C179.314 45.4734 177.838 46.5729 176.565 48.0196C175.292 49.4662 174.279 51.2601 173.527 53.4012C172.832 55.4844 172.485 57.8858 172.485 60.6056ZM164.673 60.6056C164.673 57.3072 165.136 54.2402 166.062 51.4048C166.988 48.5114 168.377 46.0232 170.228 43.94C172.08 41.7989 174.366 40.1208 177.086 38.9056C179.805 37.6904 182.93 37.0828 186.46 37.0828C190.048 37.0828 193.173 37.6904 195.834 38.9056C198.554 40.1208 200.84 41.7989 202.692 43.94C204.543 46.0232 205.932 48.5114 206.858 51.4048C207.784 54.2402 208.247 57.3072 208.247 60.6056C208.247 63.904 207.784 66.9709 206.858 69.8064C205.932 72.6419 204.543 75.1301 202.692 77.2712C200.84 79.3544 198.554 81.0036 195.834 82.2188C193.173 83.3761 190.048 83.9548 186.46 83.9548C182.93 83.9548 179.805 83.3761 177.086 82.2188C174.366 81.0036 172.08 79.3544 170.228 77.2712C168.377 75.1301 166.988 72.6419 166.062 69.8064C165.136 66.9709 164.673 63.904 164.673 60.6056Z" fill="#030300"/>
<path d="M219.723 68.8516C219.781 70.4719 220.157 71.8607 220.852 73.018C221.546 74.1175 222.443 75.0144 223.543 75.7088C224.7 76.3453 225.973 76.8083 227.362 77.0976C228.809 77.3869 230.284 77.5316 231.789 77.5316C232.946 77.5316 234.161 77.4448 235.434 77.2712C236.707 77.0976 237.865 76.7793 238.906 76.3164C240.006 75.8535 240.903 75.188 241.597 74.32C242.291 73.3941 242.639 72.2368 242.639 70.848C242.639 68.9384 241.915 67.4917 240.469 66.508C239.022 65.5243 237.199 64.7431 235 64.1644C232.859 63.5279 230.516 62.9781 227.969 62.5152C225.423 61.9944 223.051 61.3 220.852 60.432C218.711 59.5061 216.917 58.2331 215.47 56.6128C214.024 54.9925 213.3 52.7357 213.3 49.8424C213.3 47.5856 213.792 45.647 214.776 44.0268C215.817 42.4065 217.119 41.1045 218.682 40.1208C220.302 39.0792 222.096 38.3269 224.063 37.864C226.089 37.3432 228.085 37.0828 230.053 37.0828C232.599 37.0828 234.942 37.3142 237.083 37.7772C239.225 38.1822 241.105 38.9345 242.725 40.034C244.404 41.0756 245.735 42.5222 246.718 44.374C247.702 46.1678 248.281 48.4247 248.454 51.1444H241.076C240.961 49.6977 240.584 48.5114 239.948 47.5856C239.311 46.6019 238.501 45.8207 237.517 45.242C236.534 44.6633 235.434 44.2582 234.219 44.0268C233.062 43.7374 231.875 43.5928 230.66 43.5928C229.561 43.5928 228.432 43.6796 227.275 43.8532C226.176 44.0268 225.163 44.3451 224.237 44.808C223.311 45.2131 222.559 45.7917 221.98 46.544C221.402 47.2384 221.112 48.1643 221.112 49.3216C221.112 50.5947 221.546 51.6652 222.414 52.5332C223.34 53.3433 224.497 54.0377 225.886 54.6164C227.275 55.1372 228.837 55.6001 230.573 56.0052C232.309 56.3524 234.045 56.7285 235.781 57.1336C237.633 57.5387 239.427 58.0305 241.163 58.6092C242.957 59.1879 244.519 59.9691 245.85 60.9528C247.239 61.8787 248.339 63.0649 249.149 64.5116C250.017 65.9583 250.451 67.7521 250.451 69.8932C250.451 72.6129 249.872 74.8697 248.715 76.6636C247.615 78.4575 246.14 79.9041 244.288 81.0036C242.494 82.1031 240.44 82.8553 238.125 83.2604C235.868 83.7233 233.611 83.9548 231.355 83.9548C228.866 83.9548 226.494 83.6944 224.237 83.1736C221.98 82.6528 219.984 81.8137 218.248 80.6564C216.512 79.4412 215.123 77.8788 214.081 75.9692C213.04 74.0017 212.461 71.6292 212.345 68.8516H219.723Z" fill="#030300"/>
<path d="M267.116 38.1244H276.057V44.6344H267.116V72.4972C267.116 73.3652 267.174 74.0596 267.29 74.5804C267.463 75.1012 267.753 75.5063 268.158 75.7956C268.563 76.0849 269.113 76.2875 269.807 76.4032C270.559 76.4611 271.514 76.49 272.671 76.49H276.057V83H270.415C268.505 83 266.856 82.8843 265.467 82.6528C264.136 82.3635 263.037 81.8716 262.169 81.1772C261.359 80.4828 260.751 79.4991 260.346 78.226C259.941 76.9529 259.738 75.2748 259.738 73.1916V44.6344H252.1V38.1244H259.738V24.6704H267.116V38.1244Z" fill="#030300"/>
<path d="M282.951 21.0248H290.329V83H282.951V21.0248Z" fill="#030300"/>
<path d="M317.643 88.9892C316.775 91.1881 315.907 93.0399 315.039 94.5444C314.229 96.0489 313.303 97.2641 312.262 98.19C311.278 99.1737 310.15 99.8681 308.877 100.273C307.661 100.736 306.244 100.968 304.623 100.968C303.755 100.968 302.887 100.91 302.019 100.794C301.151 100.678 300.312 100.476 299.502 100.186V93.416C300.139 93.7053 300.862 93.9368 301.672 94.1104C302.54 94.3419 303.264 94.4576 303.842 94.4576C305.347 94.4576 306.591 94.0815 307.575 93.3292C308.616 92.6348 309.397 91.6221 309.918 90.2912L312.956 82.7396L295.162 38.1244H303.495L316.602 74.8408H316.775L329.361 38.1244H337.173L317.643 88.9892Z" fill="#030300"/>
<rect width="89.2817" height="89.2817" transform="translate(7 14.6859)" fill="white"/>
<path d="M63.6399 93.4653L52.3147 62.1625C51.7606 60.6315 50.5959 59.4051 49.1067 58.7709L48.8049 58.6528L17.5022 47.3276L87.967 23.0004L63.6399 93.4653Z" fill="white" stroke="#030300" stroke-width="7"/>
<path d="M50.0675 60.9832L88.2638 22.7869" stroke="#030300" stroke-width="7"/>
</svg>
